<svg width="310" height="67" viewBox="0 0 310 67" fill="none" xmlns="http://www.w3.org/2000/svg">
<path d="M0.856445 66V1.54688H26.6377V13.998H13.9668V26.5591H26.125V38.6807H13.9668V53.439H27.48V66H0.856445ZM29.5146 66V1.54688H47.2393C51.8779 1.54688 55.3691 2.84082 57.7129 5.42871C60.0566 7.99219 61.2285 11.752 61.2285 16.708V46.8838C61.2285 52.9873 60.1543 57.6992 58.0059 61.0195C55.8818 64.3398 52.1465 66 46.7998 66H29.5146ZM42.4785 54.6108H44.7124C47.0806 54.6108 48.2646 53.4634 48.2646 51.1685V17.9165C48.2646 15.7681 47.9717 14.3887 47.3857 13.7783C46.8242 13.1436 45.6646 12.8262 43.9067 12.8262H42.4785V54.6108ZM63.666 66V1.54688H76.1172V66H63.666ZM84.5239 66V13.9248H76.8701V1.54688H105.068V13.9248H97.4146V66H84.5239ZM137.043 66.5859C131.159 66.5859 126.911 65.1211 124.299 62.1914C121.711 59.2617 120.417 54.5986 120.417 48.2021V41.9033H133.161V49.96C133.161 51.4492 133.381 52.6211 133.82 53.4756C134.284 54.3057 135.078 54.7207 136.201 54.7207C137.373 54.7207 138.178 54.3789 138.618 53.6953C139.082 53.0117 139.313 51.8887 139.313 50.3262C139.313 48.3486 139.118 46.7007 138.728 45.3823C138.337 44.0396 137.653 42.77 136.677 41.5737C135.725 40.353 134.394 38.937 132.685 37.3257L126.899 31.8325C122.578 27.7554 120.417 23.0923 120.417 17.8433C120.417 12.3501 121.687 8.16309 124.226 5.28223C126.789 2.40137 130.488 0.960938 135.322 0.960938C141.23 0.960938 145.417 2.53564 147.883 5.68506C150.373 8.83447 151.618 13.6196 151.618 20.0405H138.508V15.6094C138.508 14.7305 138.251 14.0469 137.739 13.5586C137.25 13.0703 136.579 12.8262 135.725 12.8262C134.699 12.8262 133.942 13.1191 133.454 13.7051C132.99 14.2666 132.758 14.999 132.758 15.9023C132.758 16.8057 133.002 17.7822 133.491 18.832C133.979 19.8818 134.943 21.0903 136.384 22.4575L143.818 29.5986C145.307 31.0146 146.674 32.5161 147.919 34.103C149.165 35.6655 150.166 37.4966 150.922 39.5962C151.679 41.6714 152.058 44.2104 152.058 47.2134C152.058 53.2681 150.935 58.0166 148.688 61.459C146.467 64.877 142.585 66.5859 137.043 66.5859ZM153.543 66V1.54688H165.994V66H153.543ZM168.871 66V1.54688H188.5L193.92 40.8413L199.303 1.54688H219.115V66H207.323V19.5645L199.926 66H188.354L180.517 19.5645V66H168.871ZM222.578 66V1.54688H239.607C243.171 1.54688 245.991 2.34033 248.066 3.92725C250.166 5.51416 251.667 7.77246 252.571 10.7021C253.474 13.6318 253.926 17.123 253.926 21.1758C253.926 25.082 253.547 28.4878 252.791 31.3931C252.034 34.2739 250.679 36.5078 248.726 38.0947C246.797 39.6816 244.05 40.4751 240.486 40.4751H235.249V66H222.578ZM235.249 28.9028H235.981C238.374 28.9028 239.839 28.2314 240.376 26.8887C240.913 25.5459 241.182 23.5684 241.182 20.9561C241.182 18.5146 240.913 16.6348 240.376 15.3164C239.863 13.9736 238.63 13.3022 236.677 13.3022H235.249V28.9028ZM255.777 66V1.54688H268.668V55.0137H281.925V66H255.777ZM283.337 66V1.54688H309.118V13.998H296.447V26.5591H308.605V38.6807H296.447V53.439H309.96V66H283.337Z" fill="#FF4500"/>
</svg>
