<svg width="1340" height="285" viewBox="0 0 1340 285" fill="none" xmlns="http://www.w3.org/2000/svg">
<path d="M0.37793 282V2.70312H112.097V56.6582H57.1895V111.089H109.875V163.616H57.1895V227.569H115.747V282H0.37793ZM124.563 282V2.70312H201.37C221.471 2.70312 236.6 8.31022 246.756 19.5244C256.912 30.6328 261.99 46.9251 261.99 68.4014V199.163C261.99 225.612 257.335 246.03 248.025 260.418C238.821 274.806 222.635 282 199.466 282H124.563ZM180.74 232.647H190.42C200.682 232.647 205.813 227.675 205.813 217.73V73.6382C205.813 64.3283 204.544 58.3509 202.005 55.7061C199.572 52.9554 194.546 51.5801 186.929 51.5801H180.74V232.647ZM272.553 282V2.70312H326.508V282H272.553ZM362.937 282V56.3408H329.771V2.70312H451.963V56.3408H418.796V282H362.937ZM590.52 284.539C565.023 284.539 546.615 278.191 535.295 265.496C524.081 252.801 518.474 232.594 518.474 204.876V177.581H573.698V212.493C573.698 218.947 574.65 224.025 576.555 227.728C578.565 231.325 582.003 233.123 586.87 233.123C591.948 233.123 595.439 231.642 597.343 228.68C599.353 225.717 600.358 220.851 600.358 214.08C600.358 205.511 599.512 198.37 597.819 192.657C596.127 186.838 593.164 181.337 588.933 176.153C584.807 170.863 579.041 164.727 571.635 157.745L546.562 133.941C527.836 116.273 518.474 96.0666 518.474 73.3208C518.474 49.5171 523.975 31.3734 534.978 18.8896C546.086 6.40592 562.114 0.164062 583.061 0.164062C608.663 0.164062 626.807 6.98779 637.492 20.6353C648.283 34.2827 653.679 55.0184 653.679 82.8423H596.867V63.6406C596.867 59.832 595.756 56.8698 593.535 54.7539C591.419 52.638 588.509 51.5801 584.807 51.5801C580.363 51.5801 577.084 52.8496 574.968 55.3887C572.958 57.8219 571.953 60.9958 571.953 64.9102C571.953 68.8245 573.011 73.0563 575.126 77.6055C577.242 82.1546 581.421 87.3914 587.663 93.3159L619.877 124.261C626.331 130.397 632.255 136.903 637.651 143.78C643.046 150.551 647.384 158.485 650.664 167.583C653.943 176.576 655.583 187.579 655.583 200.591C655.583 226.828 650.716 247.405 640.983 262.322C631.356 277.133 614.535 284.539 590.52 284.539ZM662.02 282V2.70312H715.975V282H662.02ZM728.441 282V2.70312H813.5L836.986 172.979L860.314 2.70312H946.166V282H895.067V80.7793L863.012 282H812.865L778.905 80.7793V282H728.441ZM961.172 282V2.70312H1034.96C1050.41 2.70312 1062.63 6.14144 1071.62 13.0181C1080.72 19.8947 1087.23 29.6807 1091.14 42.376C1095.05 55.0713 1097.01 70.1999 1097.01 87.7617C1097.01 104.689 1095.37 119.447 1092.09 132.037C1088.81 144.52 1082.94 154.201 1074.48 161.077C1066.12 167.954 1054.22 171.392 1038.77 171.392H1016.08V282H961.172ZM1016.08 121.246H1019.25C1029.62 121.246 1035.97 118.336 1038.3 112.518C1040.62 106.699 1041.79 98.1296 1041.79 86.8096C1041.79 76.2301 1040.62 68.084 1038.3 62.3711C1036.07 56.5524 1030.73 53.6431 1022.27 53.6431H1016.08V121.246ZM1105.04 282V2.70312H1160.89V234.393H1218.34V282H1105.04ZM1224.46 282V2.70312H1336.18V56.6582H1281.27V111.089H1333.96V163.616H1281.27V227.569H1339.83V282H1224.46Z" fill="#FCFCFC"/>
</svg>
