<svg width="150" height="159" viewBox="0 0 150 159" fill="none" xmlns="http://www.w3.org/2000/svg">
<path d="M75 0C66.7591 0 58.7033 2.44371 51.8512 7.0221C44.9992 11.6005 39.6587 18.1079 36.505 25.7215C33.3514 33.3351 32.5262 41.7129 34.1339 49.7954C35.7417 57.878 39.71 65.3023 45.5372 71.1294C51.3644 76.9566 58.7887 80.925 66.8712 82.5327C74.9538 84.1404 83.3315 83.3153 90.9451 80.1616C98.5587 77.008 105.066 71.6675 109.645 64.8154C114.223 57.9634 116.667 49.9076 116.667 41.6667C116.667 30.616 112.277 20.0179 104.463 12.2039C96.6488 4.38987 86.0507 0 75 0ZM75 66.6667C70.0555 66.6667 65.222 65.2004 61.1107 62.4534C56.9995 59.7064 53.7952 55.8019 51.903 51.2338C50.0108 46.6656 49.5157 41.6389 50.4804 36.7894C51.445 31.9399 53.826 27.4853 57.3223 23.989C60.8186 20.4927 65.2732 18.1117 70.1227 17.147C74.9723 16.1824 79.9989 16.6775 84.5671 18.5697C89.1352 20.4619 93.0397 23.6662 95.7867 27.7774C98.5338 31.8886 100 36.7221 100 41.6667C100 48.2971 97.3661 54.6559 92.6777 59.3443C87.9893 64.0327 81.6304 66.6667 75 66.6667ZM150 158.333V150C150 134.529 143.854 119.692 132.915 108.752C121.975 97.8125 107.138 91.6667 91.6667 91.6667H58.3333C42.8624 91.6667 28.0251 97.8125 17.0854 108.752C6.14581 119.692 0 134.529 0 150V158.333H16.6667V150C16.6667 138.949 21.0565 128.351 28.8705 120.537C36.6846 112.723 47.2826 108.333 58.3333 108.333H91.6667C102.717 108.333 113.315 112.723 121.129 120.537C128.943 128.351 133.333 138.949 133.333 150V158.333H150Z" fill="#FFB06D"/>
</svg>
