<svg width="150" height="151" viewBox="0 0 150 151" fill="none" xmlns="http://www.w3.org/2000/svg">
<g clip-path="url(#clip0_6249_11)">
<path d="M43.1554 0H106.845C118.696 0 129.478 4.86327 137.301 12.674C145.137 20.497 150 31.292 150 43.1554V107.766C150 119.605 145.137 130.387 137.326 138.21L137.301 138.235C129.466 146.058 118.683 150.909 106.857 150.909H43.1554C31.292 150.909 20.497 146.046 12.674 138.235L12.3792 137.903C4.74046 130.117 0 119.457 0 107.753V43.1554C0 31.2797 4.85099 20.497 12.674 12.674C20.497 4.85099 31.2797 0 43.1554 0ZM112.383 38.0956L112.469 38.2307H138.996C137.928 31.2551 134.6 24.9918 129.81 20.1899C123.915 14.2951 115.785 10.6353 106.845 10.6353H95.9514L112.383 38.0956ZM100.115 38.2307L83.5967 10.6353H47.3678L64.0822 38.2307H100.115ZM51.7152 38.2307L35.5535 11.5318C29.6463 12.9564 24.3532 16.0144 20.1899 20.1899C15.4004 24.9795 12.0845 31.2551 11.0038 38.2307H51.7152ZM139.365 48.8661H10.6353V107.766C10.6353 116.571 14.1845 124.591 19.9198 130.461L20.1899 130.719C26.0848 136.614 34.2271 140.286 43.1554 140.286H106.845C115.785 140.286 123.915 136.626 129.798 130.743L129.822 130.719C135.705 124.836 139.365 116.706 139.365 107.766V48.8661ZM62.5716 67.484L95.5215 88.9144C96.0496 89.2582 96.5286 89.7003 96.9093 90.2407C98.4076 92.4144 97.8549 95.3987 95.6812 96.897L62.8664 116.264C62.0436 116.94 60.9874 117.345 59.8207 117.345C57.168 117.345 55.0188 115.196 55.0188 112.543V71.414H55.0434C55.0434 70.4683 55.3259 69.5104 55.9031 68.6753C57.4259 66.5016 60.4102 65.9735 62.5716 67.484Z" fill="#FFB06D"/>
</g>
<defs>
<clipPath id="clip0_6249_11">
<rect width="150" height="150.909" fill="white"/>
</clipPath>
</defs>
</svg>
