<svg width="150" height="151" viewBox="0 0 150 151" fill="none" xmlns="http://www.w3.org/2000/svg">
<path d="M75.0383 90.4878C83.3675 90.4878 90.1196 83.7357 90.1196 75.4065C90.1196 67.0774 83.3675 60.3252 75.0383 60.3252C66.7092 60.3252 59.957 67.0774 59.957 75.4065C59.957 83.7357 66.7092 90.4878 75.0383 90.4878Z" fill="#FFB06D"/>
<path d="M67.4977 150.813H82.579L86.3493 98.0285H63.7274L67.4977 150.813Z" fill="#FFB06D"/>
<path d="M74.9631 0C56.6541 0.107722 39.0096 6.87326 25.3223 19.0342C11.6349 31.1951 2.83971 47.9206 0.577807 66.0896C-1.68409 84.2587 2.74185 102.63 13.0298 117.776C23.3177 132.921 38.7647 143.807 56.4885 148.4L55.3574 132.414C41.8625 127.766 30.4525 118.484 23.1555 106.218C15.8585 93.9515 13.147 79.4951 15.5032 65.4181C17.8593 51.3411 25.1303 38.5555 36.0239 29.3337C46.9175 20.1118 60.728 15.0512 75.0008 15.0512C89.2736 15.0512 103.084 20.1118 113.978 29.3337C124.871 38.5555 132.142 51.3411 134.498 65.4181C136.854 79.4951 134.143 93.9515 126.846 106.218C119.549 118.484 108.139 127.766 94.6442 132.414L93.5131 148.4C111.243 143.805 126.694 132.913 136.981 117.76C147.269 102.606 151.689 84.2267 149.418 66.0526C147.146 47.8785 138.337 31.1524 124.636 18.9975C110.935 6.84261 93.2784 0.089816 74.9631 0Z" fill="#FFB06D"/>
<path d="M99.9979 57.3844C101.118 58.9832 102.054 60.7033 102.788 62.5121C103.558 64.3329 104.139 66.228 104.522 68.1676C104.975 70.1464 105.203 72.1701 105.201 74.2001C105.203 76.255 104.975 78.3036 104.522 80.308C104.139 82.2476 103.558 84.1427 102.788 85.9635C102.054 87.7723 101.118 89.4924 99.9979 91.0911C99.1827 92.223 98.3015 93.3057 97.3587 94.3336L95.9259 114.09C97.4305 113.402 98.8912 112.621 100.3 111.753C105.19 108.54 109.393 104.387 112.666 99.5367C114.303 97.1718 115.693 94.6449 116.814 91.996C117.977 89.2515 118.861 86.3968 119.453 83.4751C120.019 80.4171 120.272 77.3094 120.207 74.2001C120.179 71.134 119.851 68.0779 119.227 65.0759C118.089 59.3276 115.862 53.8501 112.666 48.9389C111.04 46.5383 109.198 44.2918 107.162 42.2277C105.117 40.1699 102.868 38.3255 100.45 36.723C98.0703 35.0893 95.5463 33.6758 92.9097 32.5003C90.0525 31.4338 87.0975 30.6508 84.0871 30.1627C78.0895 28.9561 71.9117 28.9561 65.9141 30.1627C62.9844 30.7583 60.1276 31.6685 57.3932 32.8773C54.7443 33.9979 52.2175 35.3877 49.8526 37.0247C47.4345 38.6271 45.1859 40.4715 43.1414 42.5293C40.9886 44.4812 39.0197 46.6267 37.2597 48.9389C33.9836 53.833 31.6796 59.3115 30.4731 65.0759C29.9243 68.0854 29.6717 71.1414 29.719 74.2001C29.714 77.2641 30.0171 80.3209 30.6239 83.3243C31.2154 86.246 32.0996 89.1007 33.2631 91.8452C34.3837 94.4941 35.7735 97.0209 37.4105 99.3859C40.6936 104.177 44.8354 108.319 49.6263 111.602C51.0347 112.47 52.4953 113.251 53.9999 113.939L52.341 94.3336C51.3982 93.3057 50.5169 92.223 49.7017 91.0911C48.5818 89.4924 47.6458 87.7723 46.9117 85.9635C46.1415 84.1427 45.5604 82.2476 45.1773 80.308C44.825 78.2924 44.6986 76.2437 44.8003 74.2001C44.773 72.1729 44.9753 70.1492 45.4036 68.1676C45.7866 66.228 46.3678 64.3329 47.1379 62.5121C47.872 60.7033 48.808 58.9832 49.928 57.3844C51.0301 55.7307 52.293 54.1899 53.6983 52.7846C55.0588 51.435 56.549 50.2226 58.1473 49.1651C59.7461 48.0451 61.4662 47.1092 63.2749 46.3751C65.0935 45.5806 66.9885 44.9742 68.9304 44.5653C72.9421 43.8117 77.0591 43.8117 81.0709 44.5653C83.0128 44.9742 84.9078 45.5806 86.7264 46.3751C90.3427 47.7974 93.6093 49.9837 96.303 52.7846C97.7031 54.1745 98.9426 55.7175 99.9979 57.3844Z" fill="#FFB06D"/>
</svg>
