<svg width="150" height="172" viewBox="0 0 150 172" fill="none" xmlns="http://www.w3.org/2000/svg">
<g clip-path="url(#clip0_6248_15)">
<path d="M127.595 34.427C118.328 28.3955 111.645 18.7407 109.556 7.49199C109.108 5.06216 108.858 2.55908 108.858 0H79.2864L79.2389 118.338C78.7428 131.59 67.8186 142.227 54.4309 142.227C50.2675 142.227 46.35 141.189 42.8984 139.375C34.9858 135.218 29.5711 126.937 29.5711 117.408C29.5711 103.72 40.724 92.5836 54.4266 92.5836C56.9851 92.5836 59.44 93.0058 61.7611 93.7296V63.585C59.358 63.2576 56.916 63.0551 54.4266 63.0551C24.4154 63.0551 0 87.4353 0 117.408C0 135.795 9.19838 152.067 23.2376 161.907C32.0778 168.107 42.8337 171.756 54.4309 171.756C84.4421 171.756 108.858 147.376 108.858 117.408V57.3984C120.455 65.7089 134.666 70.6074 150 70.6074V41.0789C141.742 41.0789 134.05 38.6275 127.595 34.427Z" fill="#FFB06D"/>
</g>
<defs>
<clipPath id="clip0_6248_15">
<rect width="150" height="171.756" fill="white"/>
</clipPath>
</defs>
</svg>
