<svg width="150" height="135" viewBox="0 0 150 135" fill="none" xmlns="http://www.w3.org/2000/svg">
<path d="M135 0H15C6.7275 0 0 6.7275 0 15V120C0 128.273 6.7275 135 15 135H135C143.273 135 150 128.273 150 120V15C150 6.7275 143.273 0 135 0ZM135.007 45H131.52L111.517 15H135L135.007 45ZM56.52 45L36.5175 15H55.9875L75.99 45H56.52ZM94.02 45L74.0175 15H93.4875L113.49 45H94.02ZM15 15H18.4875L38.49 45H15V15ZM15 120V60H135L135.015 120H15Z" fill="#FFB06D"/>
<path d="M60 112.5L101.25 90L60 67.5V112.5Z" fill="#FFB06D"/>
</svg>
