<svg width="150" height="187" viewBox="0 0 150 187" fill="none" xmlns="http://www.w3.org/2000/svg">
<g clip-path="url(#clip0_6249_8)">
<path d="M96.2553 4.10858C113.827 -5.04849 135.582 1.62222 144.83 19.0115C154.078 36.4009 147.332 57.9139 129.76 67.071L115.312 74.6665C127.759 75.1213 139.63 81.9588 145.846 93.6477C155.094 111.037 148.363 132.55 130.776 141.707L53.7295 182.186C36.1583 191.343 14.4027 184.673 5.15465 167.283C-4.09337 149.894 2.65314 128.381 20.2244 119.224L34.6725 111.628C22.2256 111.173 10.3548 104.336 4.13889 92.6471C-5.10914 75.2578 1.63737 53.7447 19.2086 44.5877L96.2553 4.10858ZM54.6695 64.4785L101.304 93.2687L54.6695 121.922V64.4785Z" fill="#FFB06D"/>
<path d="M54.6696 64.4785V121.922L101.304 93.2686L54.6696 64.4785Z" fill="white"/>
</g>
<defs>
<clipPath id="clip0_6249_8">
<rect width="150" height="186.295" fill="white"/>
</clipPath>
</defs>
</svg>
