<svg width="150" height="106" viewBox="0 0 150 106" fill="none" xmlns="http://www.w3.org/2000/svg">
<path d="M146.865 16.4459C145.14 9.9722 140.058 4.87442 133.604 3.1443C121.907 1.06203e-05 75 9.0003e-06 75 9.0003e-06C75 9.0003e-06 28.0937 1.06203e-05 16.3959 3.1443C9.94227 4.87442 4.85928 9.9722 3.13443 16.4459C0 28.1791 0 52.6596 0 52.6596C0 52.6596 0 77.1397 3.13443 88.874C4.85928 95.347 9.94227 100.445 16.3959 102.176C28.0937 105.319 75 105.319 75 105.319C75 105.319 121.907 105.319 133.604 102.176C140.058 100.445 145.14 95.347 146.865 88.874C150 77.1397 150 52.6596 150 52.6596C150 52.6596 150 28.1791 146.865 16.4459Z" fill="#FFB06D"/>
<path d="M59.6591 74.8859L98.8636 52.6606L59.6591 30.4332V74.8859Z" fill="white"/>
</svg>
